<svg viewBox="0 0 1200 500" xmlns="http://www.w3.org/2000/svg">
  <!-- Definiciones de gradientes y patrones -->
  <defs>
    <!-- Fondo principal con textura sutil -->
    <pattern id="fondoTextura" width="100" height="100" patternUnits="userSpaceOnUse">
      <rect width="100" height="100" fill="white"/>
      <path d="M0,50 L100,50" stroke="#f5f5f5" stroke-width="50" />
      <path d="M50,0 L50,100" stroke="#f9f9f9" stroke-width="50" />
    </pattern>
    
    <!-- Gradientes para elementos visuales -->
    <linearGradient id="gradienteNaranja" x1="0%" y1="0%" x2="100%" y2="100%">
      <stop offset="0%" style="stop-color:#ffb980;stop-opacity:1" />
      <stop offset="100%" style="stop-color:#ff7b00;stop-opacity:1" />
    </linearGradient>
    
    <linearGradient id="gradienteGris" x1="0%" y1="0%" x2="100%" y2="100%">
      <stop offset="0%" style="stop-color:#666666;stop-opacity:1" />
      <stop offset="100%" style="stop-color:#444444;stop-opacity:1" />
    </linearGradient>
    
    <linearGradient id="gradienteNube" x1="0%" y1="0%" x2="100%" y2="100%">
      <stop offset="0%" style="stop-color:#e0e0e0;stop-opacity:1" />
      <stop offset="100%" style="stop-color:#b0b0b0;stop-opacity:1" />
    </linearGradient>
    
    <!-- Brillo para efectos especiales -->
    <radialGradient id="brilloNaranja" cx="50%" cy="50%" r="50%" fx="50%" fy="50%">
      <stop offset="0%" style="stop-color:#ffb980;stop-opacity:0.8" />
      <stop offset="100%" style="stop-color:#ff7b00;stop-opacity:0" />
    </radialGradient>
    
    <!-- Sombras para profundidad -->
    <filter id="sombra" x="-20%" y="-20%" width="140%" height="140%">
      <feGaussianBlur in="SourceAlpha" stdDeviation="5" />
      <feOffset dx="3" dy="3" result="offsetblur" />
      <feComponentTransfer>
        <feFuncA type="linear" slope="0.3" />
      </feComponentTransfer>
      <feMerge>
        <feMergeNode />
        <feMergeNode in="SourceGraphic" />
      </feMerge>
    </filter>
  </defs>
  
  <!-- Fondo principal con patrón sutil -->
  <rect width="1200" height="500" fill="url(#fondoTextura)" />
  
  <!-- Decoración de fondo -->
  <g opacity="0.05">
    <path d="M0,150 Q300,100 600,150 T1200,100" stroke="#555555" stroke-width="30" fill="none" />
    <path d="M0,350 Q400,400 800,350 T1200,400" stroke="#555555" stroke-width="30" fill="none" />
  </g>
  
  <!-- Cuadrícula de fondo -->
  <g stroke="#eeeeee" stroke-width="1">
    <line x1="100" y1="0" x2="100" y2="500" />
    <line x1="300" y1="0" x2="300" y2="500" />
    <line x1="500" y1="0" x2="500" y2="500" />
    <line x1="700" y1="0" x2="700" y2="500" />
    <line x1="900" y1="0" x2="900" y2="500" />
    <line x1="1100" y1="0" x2="1100" y2="500" />
    
    <line x1="0" y1="100" x2="1200" y2="100" />
    <line x1="0" y1="200" x2="1200" y2="200" />
    <line x1="0" y1="300" x2="1200" y2="300" />
    <line x1="0" y1="400" x2="1200" y2="400" />
  </g>
  
  <!-- Elementos circulares decorativos -->
  <circle cx="150" cy="150" r="50" fill="url(#brilloNaranja)" opacity="0.15" />
  <circle cx="1050" cy="350" r="70" fill="url(#brilloNaranja)" opacity="0.15" />
  <circle cx="800" cy="120" r="40" fill="url(#brilloNaranja)" opacity="0.15" />
  <circle cx="400" cy="380" r="60" fill="url(#brilloNaranja)" opacity="0.15" />
  
  <!-- Diagrama central de migración -->
  <!-- Centro del banner - elementos principales -->
  <g transform="translate(600, 250)">
    <!-- Núcleo central - nube principal -->
    <path d="M-100,30 
             C-100,0 -80,-30 -50,-30 
             C-50,-60 -20,-80 10,-80 
             C40,-80 70,-60 70,-30 
             C100,-30 120,0 120,30 
             C120,60 100,90 70,90 
             C50,90 30,80 10,80 
             C-10,80 -30,90 -50,90 
             C-80,90 -100,60 -100,30" 
          fill="url(#gradienteNube)" filter="url(#sombra)" />
          
    <!-- Iconos en la nube -->
    <g transform="translate(-30, 0)">
      <!-- Icono 1: servidor en la nube -->
      <rect x="-20" y="-20" width="40" height="40" rx="5" fill="#ffffff" stroke="#ff7b00" stroke-width="2" />
      <line x1="-10" y1="-5" x2="10" y2="-5" stroke="#ff7b00" stroke-width="2" />
      <line x1="-10" y1="5" x2="10" y2="5" stroke="#ff7b00" stroke-width="2" />
      <line x1="-10" y1="15" x2="10" y2="15" stroke="#ff7b00" stroke-width="2" />
    </g>
    
    <g transform="translate(30, -15)">
      <!-- Icono 2: almacenamiento en la nube -->
      <path d="M-15,-15 L15,-15 L15,15 L-15,15 Z" fill="#ffffff" stroke="#ff7b00" stroke-width="2" />
      <path d="M-5,-5 L5,-5 L5,5 L-5,5 Z" fill="none" stroke="#ff7b00" stroke-width="1.5" />
      <path d="M0,-15 L0,-25 M-10,-25 L10,-25" stroke="#ff7b00" stroke-width="1.5" />
    </g>
    
    <g transform="translate(0, 25)">
      <!-- Icono 3: procesamiento en la nube -->
      <circle cx="0" cy="0" r="15" fill="#ffffff" stroke="#ff7b00" stroke-width="2" />
      <path d="M-10,-5 L10,5 M-10,5 L10,-5" stroke="#ff7b00" stroke-width="1.5" />
    </g>
  </g>
  
  <!-- Lado izquierdo - sistemas antiguos -->
  <g transform="translate(200, 250)">
    <!-- Torre de servidores -->
    <rect x="-50" y="-100" width="100" height="200" rx="5" fill="#f0f0f0" stroke="url(#gradienteGris)" stroke-width="3" filter="url(#sombra)" />
    
    <!-- Detalles de servidor -->
    <rect x="-40" y="-90" width="80" height="20" rx="2" fill="#e0e0e0" stroke="#cccccc" stroke-width="1" />
    <rect x="-40" y="-60" width="80" height="20" rx="2" fill="#e0e0e0" stroke="#cccccc" stroke-width="1" />
    <rect x="-40" y="-30" width="80" height="20" rx="2" fill="#e0e0e0" stroke="#cccccc" stroke-width="1" />
    <rect x="-40" y="0" width="80" height="20" rx="2" fill="#e0e0e0" stroke="#cccccc" stroke-width="1" />
    <rect x="-40" y="30" width="80" height="20" rx="2" fill="#e0e0e0" stroke="#cccccc" stroke-width="1" />
    <rect x="-40" y="60" width="80" height="20" rx="2" fill="#e0e0e0" stroke="#cccccc" stroke-width="1" />
    
    <!-- Luces de servidor -->
    <circle cx="-30" cy="-80" r="3" fill="#ff7b00" />
    <circle cx="-30" cy="-50" r="3" fill="#33cc33" />
    <circle cx="-30" cy="-20" r="3" fill="#ff7b00" />
    <circle cx="-30" cy="10" r="3" fill="#33cc33" />
    <circle cx="-30" cy="40" r="3" fill="#ff7b00" />
    <circle cx="-30" cy="70" r="3" fill="#33cc33" />
  </g>
  
  <!-- Lado derecho - aplicaciones modernas -->
  <g transform="translate(950, 250)">
    <!-- Aplicaciones modernas en grupo -->
    <!-- Aplicación 1 -->
    <rect x="-120" y="-80" width="70" height="70" rx="10" fill="#f9f9f9" stroke="url(#gradienteNaranja)" stroke-width="2" filter="url(#sombra)" />
    <path d="M-100,-60 L-90,-45 L-80,-60" stroke="#ff7b00" stroke-width="2" fill="none" />
    <path d="M-100,-35 L-70,-35" stroke="#ff7b00" stroke-width="2" fill="none" />
    <path d="M-90,-25 L-80,-25" stroke="#ff7b00" stroke-width="2" fill="none" />
    
    <!-- Aplicación 2 -->
    <rect x="-30" y="-40" width="70" height="70" rx="10" fill="#f9f9f9" stroke="url(#gradienteNaranja)" stroke-width="2" filter="url(#sombra)" />
    <circle cx="5" cy="-5" r="15" fill="none" stroke="#ff7b00" stroke-width="2" />
    <path d="M-5,-15 L15,5" stroke="#ff7b00" stroke-width="2" />
    
    <!-- Aplicación 3 -->
    <rect x="-80" y="20" width="70" height="70" rx="10" fill="#f9f9f9" stroke="url(#gradienteNaranja)" stroke-width="2" filter="url(#sombra)" />
    <path d="M-65,40 L-35,40 L-50,70 Z" fill="none" stroke="#ff7b00" stroke-width="2" />
    <circle cx="-50" cy="55" r="5" fill="#ff7b00" />
  </g>
  
  <!-- Elementos de conexión y migración -->
  <!-- Flechas de migración principal -->
  <path d="M250,250 C350,200 450,300 550,250" stroke="url(#gradienteNaranja)" stroke-width="4" fill="none" stroke-dasharray="10,6" />
  <polygon points="540,245 555,250 540,255" fill="#ff7b00" />
  
  <path d="M650,250 C750,300 850,200 950,250" stroke="url(#gradienteNaranja)" stroke-width="4" fill="none" stroke-dasharray="10,6" />
  <polygon points="940,245 955,250 940,255" fill="#ff7b00" />
  
  <!-- Líneas de datos en movimiento -->
  <g>
    <!-- Datos fluyendo desde sistemas antiguos -->
    <circle cx="300" cy="220" r="4" fill="#ff7b00" opacity="0.8">
      <animate attributeName="cx" values="300;550" dur="3s" repeatCount="indefinite" />
    </circle>
    <circle cx="290" cy="250" r="4" fill="#ff7b00" opacity="0.8">
      <animate attributeName="cx" values="290;540" dur="4s" repeatCount="indefinite" />
    </circle>
    <circle cx="310" cy="280" r="4" fill="#ff7b00" opacity="0.8">
      <animate attributeName="cx" values="310;560" dur="3.5s" repeatCount="indefinite" />
    </circle>
    
    <!-- Datos fluyendo hacia sistemas modernos -->
    <circle cx="650" cy="220" r="4" fill="#ff7b00" opacity="0.8">
      <animate attributeName="cx" values="650;900" dur="3s" repeatCount="indefinite" />
    </circle>
    <circle cx="640" cy="250" r="4" fill="#ff7b00" opacity="0.8">
      <animate attributeName="cx" values="640;890" dur="4s" repeatCount="indefinite" />
    </circle>
    <circle cx="660" cy="280" r="4" fill="#ff7b00" opacity="0.8">
      <animate attributeName="cx" values="660;910" dur="3.5s" repeatCount="indefinite" />
    </circle>
  </g>
  
  <!-- Elementos tecnológicos adicionales -->
  <!-- Iconos de código/tecnología -->
  <g transform="translate(450, 120)" opacity="0.7">
    <text x="0" y="0" font-family="monospace" font-size="16" fill="#555555">&lt;/&gt;</text>
  </g>
  
  <g transform="translate(750, 380)" opacity="0.7">
    <text x="0" y="0" font-family="monospace" font-size="16" fill="#555555">{API}</text>
  </g>
  
  <g transform="translate(350, 380)" opacity="0.7">
    <text x="0" y="0" font-family="monospace" font-size="16" fill="#555555">SQL</text>
  </g>
  
  <g transform="translate(850, 120)" opacity="0.7">
    <text x="0" y="0" font-family="monospace" font-size="16" fill="#555555">JSON</text>
  </g>
  
  <!-- Elementos decorativos adicionales -->
  <!-- Pequeñas nubes decorativas -->
  <g transform="translate(150, 100) scale(0.4)" opacity="0.5">
    <path d="M-100,30 
             C-100,0 -80,-30 -50,-30 
             C-50,-60 -20,-80 10,-80 
             C40,-80 70,-60 70,-30 
             C100,-30 120,0 120,30 
             C120,60 100,90 70,90 
             C50,90 30,80 10,80 
             C-10,80 -30,90 -50,90 
             C-80,90 -100,60 -100,30" 
          fill="#dddddd" />
  </g>
  
  <g transform="translate(1050, 150) scale(0.5)" opacity="0.5">
    <path d="M-100,30 
             C-100,0 -80,-30 -50,-30 
             C-50,-60 -20,-80 10,-80 
             C40,-80 70,-60 70,-30 
             C100,-30 120,0 120,30 
             C120,60 100,90 70,90 
             C50,90 30,80 10,80 
             C-10,80 -30,90 -50,90 
             C-80,90 -100,60 -100,30" 
          fill="#dddddd" />
  </g>
  
  <!-- Iconos tecnológicos dispersos -->
  <g opacity="0.5">
    <!-- Engranaje -->
    <g transform="translate(180, 400)">
      <circle cx="0" cy="0" r="12" fill="none" stroke="#666666" stroke-width="1.5" />
      <path d="M0,-12 L0,-15 M0,12 L0,15 M-12,0 L-15,0 M12,0 L15,0 M-8,-8 L-11,-11 M8,8 L11,11 M-8,8 L-11,11 M8,-8 L11,-11" stroke="#666666" stroke-width="1.5" />
    </g>
    
    <!-- Diagrama de red -->
    <g transform="translate(1020, 400)">
      <circle cx="-10" cy="-10" r="5" fill="none" stroke="#666666" stroke-width="1" />
      <circle cx="10" cy="-10" r="5" fill="none" stroke="#666666" stroke-width="1" />
      <circle cx="0" cy="10" r="5" fill="none" stroke="#666666" stroke-width="1" />
      <line x1="-10" y1="-10" x2="10" y2="-10" stroke="#666666" stroke-width="1" />
      <line x1="-10" y1="-10" x2="0" y2="10" stroke="#666666" stroke-width="1" />
      <line x1="10" y1="-10" x2="0" y2="10" stroke="#666666" stroke-width="1" />
    </g>
  </g>
  
  <!-- Microchips o elementos de hardware -->
  <g transform="translate(120, 320)">
    <rect x="-15" y="-15" width="30" height="30" fill="none" stroke="#666666" stroke-width="1" />
    <line x1="-15" y1="-5" x2="15" y2="-5" stroke="#666666" stroke-width="1" />
    <line x1="-15" y1="5" x2="15" y2="5" stroke="#666666" stroke-width="1" />
    <line x1="-5" y1="-15" x2="-5" y2="15" stroke="#666666" stroke-width="1" />
    <line x1="5" y1="-15" x2="5" y2="15" stroke="#666666" stroke-width="1" />
  </g>
  
  <g transform="translate(1080, 180)">
    <rect x="-15" y="-15" width="30" height="30" fill="none" stroke="#666666" stroke-width="1" />
    <line x1="-15" y1="-5" x2="15" y2="-5" stroke="#666666" stroke-width="1" />
    <line x1="-15" y1="5" x2="15" y2="5" stroke="#666666" stroke-width="1" />
    <line x1="-5" y1="-15" x2="-5" y2="15" stroke="#666666" stroke-width="1" />
    <line x1="5" y1="-15" x2="5" y2="15" stroke="#666666" stroke-width="1" />
  </g>
  
  <!-- Borde sutil del banner -->
  <rect x="0" y="0" width="1200" height="500" fill="none" stroke="#dddddd" stroke-width="2" />
</svg>