<?xml version="1.0" standalone="no"?>
<!DOCTYPE svg PUBLIC "-//W3C//DTD SVG 20010904//EN"
 "http://www.w3.org/TR/2001/REC-SVG-20010904/DTD/svg10.dtd">
<svg version="1.0" xmlns="http://www.w3.org/2000/svg"
 width="1024.000000pt" height="1024.000000pt" viewBox="0 0 1024.000000 1024.000000"
 preserveAspectRatio="xMidYMid meet">
<metadata>
Created by potrace 1.16, written by Peter Selinger 2001-2019
</metadata>
<g transform="translate(0.000000,1024.000000) scale(0.100000,-0.100000)"
fill="#000000" stroke="none">
<path d="M0 5120 l0 -5120 5120 0 5120 0 0 5120 0 5120 -5120 0 -5120 0 0
-5120z m7946 2446 c19 -14 19 -52 22 -2430 l2 -2415 -23 -16 c-21 -13 -81 -15
-452 -13 l-429 3 -9 30 c-5 17 -6 704 -3 1645 l6 1615 -31 -35 c-17 -19 -175
-215 -352 -435 -329 -410 -571 -708 -992 -1223 -132 -162 -295 -362 -362 -445
-67 -83 -130 -155 -140 -159 -37 -14 -130 -9 -150 10 -54 48 -434 518 -1092
1353 -391 496 -449 569 -584 739 -77 96 -144 180 -151 187 -8 9 -10 -402 -8
-1621 2 -1512 1 -1634 -14 -1647 -14 -11 -101 -15 -456 -17 l-438 -3 -10 26
c-7 17 -10 866 -10 2425 0 2167 2 2400 16 2414 13 14 66 16 428 16 262 0 424
-4 442 -10 20 -8 87 -84 224 -257 107 -135 307 -385 444 -557 137 -171 306
-383 376 -471 512 -643 912 -1140 919 -1143 7 -2 609 745 811 1008 115 150
304 386 616 770 113 140 267 332 342 425 74 94 151 187 171 208 l35 37 416 0
c344 0 420 -2 436 -14z"/>
</g>
</svg>
